<?xml version="1.0" encoding="utf-8" ?>
<svg xmlns="http://www.w3.org/2000/svg" xmlns:xlink="http://www.w3.org/1999/xlink" width="256" height="256">
	<defs>
		<linearGradient id="gradient_0" gradientUnits="userSpaceOnUse" x1="0" y1="0" x2="0" y2="256">
			<stop offset="0" stop-color="#2A2B37"/>
			<stop offset="1" stop-color="#14141A"/>
		</linearGradient>
	</defs>
	<path fill="url(#gradient_0)" d="M0 198.4L0 57.6Q0 56.186 0.0693817 54.7737Q0.138763 53.3614 0.27736 51.9542Q0.415956 50.547 0.623433 49.1483Q0.83091 47.7496 1.10677 46.3628Q1.38263 44.976 1.7262 43.6043Q2.06977 42.2327 2.48024 40.8796Q2.8907 39.5265 3.36706 38.1951Q3.84342 36.8638 4.38454 35.5574Q4.92565 34.2511 5.53022 32.9728Q6.13478 31.6946 6.80133 30.4475Q7.46789 29.2005 8.19483 27.9877Q8.92177 26.7748 9.70735 25.5991Q10.4929 24.4235 11.3352 23.2877Q12.1776 22.152 13.0746 21.0589Q13.9716 19.9659 14.9212 18.9182Q15.8708 17.8705 16.8706 16.8706Q17.8705 15.8708 18.9182 14.9212Q19.9659 13.9716 21.0589 13.0746Q22.152 12.1776 23.2877 11.3352Q24.4235 10.4929 25.5991 9.70735Q26.7748 8.92177 27.9877 8.19483Q29.2005 7.46789 30.4475 6.80133Q31.6946 6.13478 32.9728 5.53022Q34.2511 4.92565 35.5574 4.38454Q36.8638 3.84342 38.1951 3.36706Q39.5265 2.8907 40.8796 2.48024Q42.2327 2.06977 43.6043 1.7262Q44.976 1.38263 46.3628 1.10677Q47.7496 0.83091 49.1483 0.623433Q50.547 0.415956 51.9542 0.27736Q53.3614 0.138763 54.7737 0.0693817Q56.186 0 57.6 0L198.4 0Q199.814 0 201.226 0.0693817Q202.639 0.138763 204.046 0.27736Q205.453 0.415956 206.852 0.623433Q208.25 0.83091 209.637 1.10677Q211.024 1.38263 212.396 1.7262Q213.767 2.06977 215.12 2.48024Q216.473 2.8907 217.805 3.36706Q219.136 3.84342 220.443 4.38454Q221.749 4.92565 223.027 5.53022Q224.305 6.13478 225.552 6.80133Q226.799 7.46789 228.012 8.19483Q229.225 8.92177 230.401 9.70735Q231.577 10.4929 232.712 11.3352Q233.848 12.1776 234.941 13.0746Q236.034 13.9716 237.082 14.9212Q238.129 15.8708 239.129 16.8706Q240.129 17.8705 241.079 18.9182Q242.028 19.9659 242.925 21.0589Q243.822 22.152 244.665 23.2877Q245.507 24.4235 246.293 25.5991Q247.078 26.7748 247.805 27.9877Q248.532 29.2005 249.199 30.4475Q249.865 31.6946 250.47 32.9728Q251.074 34.2511 251.615 35.5574Q252.157 36.8638 252.633 38.1951Q253.109 39.5265 253.52 40.8796Q253.93 42.2327 254.274 43.6043Q254.617 44.976 254.893 46.3628Q255.169 47.7496 255.377 49.1483Q255.584 50.547 255.723 51.9542Q255.861 53.3614 255.931 54.7737Q256 56.186 256 57.6L256 198.4Q256 199.814 255.931 201.226Q255.861 202.639 255.723 204.046Q255.584 205.453 255.377 206.852Q255.169 208.25 254.893 209.637Q254.617 211.024 254.274 212.396Q253.93 213.767 253.52 215.12Q253.109 216.473 252.633 217.805Q252.157 219.136 251.615 220.443Q251.074 221.749 250.47 223.027Q249.865 224.305 249.199 225.552Q248.532 226.799 247.805 228.012Q247.078 229.225 246.293 230.401Q245.507 231.577 244.665 232.712Q243.822 233.848 242.925 234.941Q242.028 236.034 241.079 237.082Q240.129 238.129 239.129 239.129Q238.13 240.129 237.082 241.079Q236.034 242.028 234.941 242.925Q233.848 243.822 232.712 244.665Q231.577 245.507 230.401 246.293Q229.225 247.078 228.012 247.805Q226.799 248.532 225.552 249.199Q224.305 249.865 223.027 250.47Q221.749 251.074 220.443 251.615Q219.136 252.157 217.805 252.633Q216.473 253.109 215.12 253.52Q213.767 253.93 212.396 254.274Q211.024 254.617 209.637 254.893Q208.25 255.169 206.852 255.377Q205.453 255.584 204.046 255.723Q202.639 255.861 201.226 255.931Q199.814 256 198.4 256L57.6 256Q56.186 256 54.7737 255.931Q53.3614 255.861 51.9542 255.723Q50.547 255.584 49.1483 255.377Q47.7496 255.169 46.3628 254.893Q44.976 254.617 43.6043 254.274Q42.2327 253.93 40.8796 253.52Q39.5265 253.109 38.1951 252.633Q36.8638 252.157 35.5574 251.615Q34.2511 251.074 32.9728 250.47Q31.6946 249.865 30.4475 249.199Q29.2005 248.532 27.9877 247.805Q26.7748 247.078 25.5991 246.293Q24.4235 245.507 23.2877 244.665Q22.152 243.822 21.0589 242.925Q19.9659 242.028 18.9182 241.079Q17.8705 240.129 16.8706 239.129Q15.8708 238.13 14.9212 237.082Q13.9716 236.034 13.0746 234.941Q12.1776 233.848 11.3352 232.712Q10.4929 231.577 9.70735 230.401Q8.92177 229.225 8.19483 228.012Q7.46789 226.799 6.80133 225.552Q6.13478 224.305 5.53022 223.027Q4.92565 221.749 4.38454 220.443Q3.84342 219.136 3.36706 217.805Q2.8907 216.473 2.48024 215.12Q2.06977 213.767 1.7262 212.396Q1.38263 211.024 1.10677 209.637Q0.83091 208.25 0.623433 206.852Q0.415956 205.453 0.27736 204.046Q0.138763 202.639 0.0693817 201.226Q0 199.814 0 198.4Z"/>
	<defs>
		<linearGradient id="gradient_1" gradientUnits="userSpaceOnUse" x1="0" y1="0" x2="0" y2="128">
			<stop offset="0" stop-color="white" stop-opacity="0.1882353"/>
			<stop offset="1" stop-color="white" stop-opacity="0"/>
		</linearGradient>
	</defs>
	<path fill="none" stroke="url(#gradient_1)" stroke-width="3.072" stroke-miterlimit="4" d="M3.072 195.328L3.072 60.672Q3.072 59.258 3.14138 57.8457Q3.21076 56.4334 3.34936 55.0262Q3.48796 53.619 3.69543 52.2203Q3.90291 50.8216 4.17877 49.4348Q4.45462 48.048 4.7982 46.6763Q5.14177 45.3047 5.55224 43.9516Q5.9627 42.5985 6.43906 41.2671Q6.91542 39.9358 7.45654 38.6294Q7.99765 37.3231 8.60221 36.0448Q9.20678 34.7666 9.87333 33.5195Q10.5399 32.2725 11.2668 31.0597Q11.9938 29.8468 12.7793 28.6712Q13.5649 27.4955 14.4072 26.3597Q15.2496 25.224 16.1466 24.1309Q17.0436 23.0379 17.9932 21.9902Q18.9428 20.9425 19.9426 19.9426Q20.9425 18.9428 21.9902 17.9932Q23.0379 17.0436 24.1309 16.1466Q25.224 15.2496 26.3597 14.4072Q27.4955 13.5649 28.6712 12.7793Q29.8468 11.9938 31.0597 11.2668Q32.2725 10.5399 33.5195 9.87333Q34.7666 9.20678 36.0448 8.60222Q37.3231 7.99765 38.6294 7.45654Q39.9358 6.91542 41.2671 6.43906Q42.5985 5.9627 43.9516 5.55224Q45.3047 5.14177 46.6763 4.7982Q48.048 4.45463 49.4348 4.17877Q50.8216 3.90291 52.2203 3.69543Q53.619 3.48796 55.0262 3.34936Q56.4334 3.21076 57.8457 3.14138Q59.258 3.072 60.672 3.072L195.328 3.072Q196.742 3.072 198.154 3.14138Q199.567 3.21076 200.974 3.34936Q202.381 3.48796 203.78 3.69543Q205.178 3.90291 206.565 4.17877Q207.952 4.45463 209.324 4.7982Q210.695 5.14177 212.048 5.55224Q213.401 5.9627 214.733 6.43906Q216.064 6.91542 217.371 7.45654Q218.677 7.99765 219.955 8.60221Q221.233 9.20678 222.48 9.87333Q223.727 10.5399 224.94 11.2668Q226.153 11.9938 227.329 12.7793Q228.505 13.5649 229.64 14.4072Q230.776 15.2496 231.869 16.1466Q232.962 17.0436 234.01 17.9932Q235.057 18.9428 236.057 19.9426Q237.057 20.9425 238.007 21.9902Q238.956 23.0379 239.853 24.1309Q240.75 25.224 241.593 26.3597Q242.435 27.4955 243.221 28.6712Q244.006 29.8468 244.733 31.0597Q245.46 32.2725 246.127 33.5195Q246.793 34.7666 247.398 36.0448Q248.002 37.3231 248.543 38.6294Q249.085 39.9358 249.561 41.2671Q250.037 42.5985 250.448 43.9516Q250.858 45.3047 251.202 46.6763Q251.545 48.048 251.821 49.4348Q252.097 50.8216 252.305 52.2203Q252.512 53.619 252.651 55.0262Q252.789 56.4334 252.859 57.8457Q252.928 59.258 252.928 60.672L252.928 195.328Q252.928 196.742 252.859 198.154Q252.789 199.567 252.651 200.974Q252.512 202.381 252.305 203.78Q252.097 205.178 251.821 206.565Q251.545 207.952 251.202 209.324Q250.858 210.695 250.448 212.048Q250.037 213.401 249.561 214.733Q249.085 216.064 248.543 217.371Q248.002 218.677 247.398 219.955Q246.793 221.233 246.127 222.48Q245.46 223.727 244.733 224.94Q244.006 226.153 243.221 227.329Q242.435 228.505 241.593 229.64Q240.75 230.776 239.853 231.869Q238.956 232.962 238.007 234.01Q237.057 235.057 236.057 236.057Q235.057 237.057 234.01 238.007Q232.962 238.956 231.869 239.853Q230.776 240.75 229.64 241.593Q228.505 242.435 227.329 243.221Q226.153 244.006 224.94 244.733Q223.727 245.46 222.48 246.127Q221.233 246.793 219.955 247.398Q218.677 248.002 217.371 248.543Q216.064 249.085 214.733 249.561Q213.402 250.037 212.048 250.448Q210.695 250.858 209.324 251.202Q207.952 251.545 206.565 251.821Q205.178 252.097 203.78 252.305Q202.381 252.512 200.974 252.651Q199.567 252.789 198.154 252.859Q196.742 252.928 195.328 252.928L60.672 252.928Q59.258 252.928 57.8457 252.859Q56.4334 252.789 55.0262 252.651Q53.619 252.512 52.2203 252.305Q50.8216 252.097 49.4348 251.821Q48.048 251.545 46.6763 251.202Q45.3047 250.858 43.9516 250.448Q42.5985 250.037 41.2671 249.561Q39.9358 249.085 38.6294 248.543Q37.3231 248.002 36.0448 247.398Q34.7666 246.793 33.5195 246.127Q32.2725 245.46 31.0597 244.733Q29.8468 244.006 28.6712 243.221Q27.4955 242.435 26.3597 241.593Q25.224 240.75 24.1309 239.853Q23.0379 238.956 21.9902 238.007Q20.9425 237.057 19.9426 236.057Q18.9428 235.057 17.9932 234.01Q17.0436 232.962 16.1466 231.869Q15.2496 230.776 14.4072 229.64Q13.5649 228.505 12.7793 227.329Q11.9938 226.153 11.2668 224.94Q10.5399 223.727 9.87333 222.48Q9.20678 221.233 8.60222 219.955Q7.99765 218.677 7.45654 217.371Q6.91542 216.064 6.43906 214.733Q5.9627 213.402 5.55224 212.048Q5.14177 210.695 4.7982 209.324Q4.45463 207.952 4.17877 206.565Q3.90291 205.178 3.69543 203.78Q3.48796 202.381 3.34936 200.974Q3.21076 199.567 3.14138 198.154Q3.072 196.742 3.072 195.328Z"/>
	<defs>
		<linearGradient id="gradient_2" gradientUnits="userSpaceOnUse" x1="0" y1="133.12" x2="0" y2="220.16">
			<stop offset="0" stop-color="#324263"/>
			<stop offset="1" stop-color="#1E2940"/>
		</linearGradient>
	</defs>
	<path fill="url(#gradient_2)" d="M128 149.76C81.92 133.12 51.2 133.12 25.6 149.76L31.232 208.64C69.12 194.048 102.4 194.048 128 204.8C153.6 194.048 186.88 194.048 224.768 208.64L230.4 149.76C204.8 133.12 174.08 133.12 128 149.76Z"/>
	<defs>
		<linearGradient id="gradient_3" gradientUnits="userSpaceOnUse" x1="0" y1="128" x2="0" y2="199.67999">
			<stop offset="0" stop-color="#F4F6FB"/>
			<stop offset="1" stop-color="#D5DCEA"/>
		</linearGradient>
	</defs>
	<path fill="url(#gradient_3)" d="M128 143.36C90.88 128.768 58.88 128.768 33.28 143.36L38.912 197.632C67.072 185.344 97.28 185.344 128 196.096L128 143.36Z"/>
	<path fill="#869BC2" fill-opacity="0.92156863" d="M55.04 157.312L55.04 157.312Q55.04 157.193 55.0517 157.074Q55.0634 156.955 55.0867 156.838Q55.11 156.72 55.1447 156.606Q55.1794 156.492 55.2251 156.381Q55.2708 156.271 55.3272 156.166Q55.3835 156.06 55.4499 155.961Q55.5162 155.862 55.592 155.769Q55.6678 155.677 55.7523 155.592Q55.8368 155.508 55.9292 155.432Q56.0215 155.356 56.1208 155.29Q56.2202 155.223 56.3256 155.167Q56.4309 155.111 56.5413 155.065Q56.6517 155.019 56.766 154.985Q56.8804 154.95 56.9975 154.927Q57.1147 154.903 57.2336 154.892Q57.3525 154.88 57.472 154.88L107.648 154.88Q107.767 154.88 107.886 154.892Q108.005 154.903 108.122 154.927Q108.24 154.95 108.354 154.985Q108.468 155.019 108.579 155.065Q108.689 155.111 108.794 155.167Q108.9 155.223 108.999 155.29Q109.098 155.356 109.191 155.432Q109.283 155.508 109.368 155.592Q109.452 155.677 109.528 155.769Q109.604 155.862 109.67 155.961Q109.737 156.06 109.793 156.166Q109.849 156.271 109.895 156.381Q109.941 156.492 109.975 156.606Q110.01 156.72 110.033 156.838Q110.057 156.955 110.068 157.074Q110.08 157.193 110.08 157.312L110.08 157.312Q110.08 157.431 110.068 157.55Q110.057 157.669 110.033 157.786Q110.01 157.904 109.975 158.018Q109.941 158.132 109.895 158.243Q109.849 158.353 109.793 158.458Q109.737 158.564 109.67 158.663Q109.604 158.762 109.528 158.855Q109.452 158.947 109.368 159.032Q109.283 159.116 109.191 159.192Q109.098 159.268 108.999 159.334Q108.9 159.401 108.794 159.457Q108.689 159.513 108.579 159.559Q108.468 159.605 108.354 159.639Q108.24 159.674 108.122 159.697Q108.005 159.721 107.886 159.732Q107.767 159.744 107.648 159.744L57.472 159.744Q57.3525 159.744 57.2336 159.732Q57.1147 159.721 56.9975 159.697Q56.8804 159.674 56.766 159.639Q56.6517 159.605 56.5413 159.559Q56.4309 159.513 56.3256 159.457Q56.2202 159.401 56.1208 159.334Q56.0215 159.268 55.9292 159.192Q55.8368 159.116 55.7523 159.032Q55.6678 158.947 55.592 158.855Q55.5162 158.762 55.4499 158.663Q55.3835 158.564 55.3272 158.458Q55.2708 158.353 55.2251 158.243Q55.1794 158.132 55.1447 158.018Q55.11 157.904 55.0867 157.786Q55.0634 157.669 55.0517 157.55Q55.04 157.431 55.04 157.312Z"/>
	<path fill="#869BC2" fill-opacity="0.92156863" d="M55.04 170.112L55.04 170.112Q55.04 169.993 55.0517 169.874Q55.0634 169.755 55.0867 169.638Q55.11 169.52 55.1447 169.406Q55.1794 169.292 55.2251 169.181Q55.2708 169.071 55.3272 168.966Q55.3835 168.86 55.4499 168.761Q55.5162 168.661 55.592 168.569Q55.6678 168.477 55.7523 168.392Q55.8368 168.308 55.9292 168.232Q56.0215 168.156 56.1208 168.09Q56.2202 168.023 56.3256 167.967Q56.4309 167.911 56.5413 167.865Q56.6517 167.819 56.766 167.785Q56.8804 167.75 56.9975 167.727Q57.1147 167.703 57.2336 167.692Q57.3525 167.68 57.472 167.68L107.648 167.68Q107.767 167.68 107.886 167.692Q108.005 167.703 108.122 167.727Q108.24 167.75 108.354 167.785Q108.468 167.819 108.579 167.865Q108.689 167.911 108.794 167.967Q108.9 168.024 108.999 168.09Q109.098 168.156 109.191 168.232Q109.283 168.308 109.368 168.392Q109.452 168.477 109.528 168.569Q109.604 168.662 109.67 168.761Q109.737 168.86 109.793 168.966Q109.849 169.071 109.895 169.181Q109.941 169.292 109.975 169.406Q110.01 169.52 110.033 169.638Q110.057 169.755 110.068 169.874Q110.08 169.993 110.08 170.112L110.08 170.112Q110.08 170.231 110.068 170.35Q110.057 170.469 110.033 170.586Q110.01 170.704 109.975 170.818Q109.941 170.932 109.895 171.043Q109.849 171.153 109.793 171.258Q109.737 171.364 109.67 171.463Q109.604 171.562 109.528 171.655Q109.452 171.747 109.368 171.832Q109.283 171.916 109.191 171.992Q109.098 172.068 108.999 172.134Q108.9 172.201 108.794 172.257Q108.689 172.313 108.579 172.359Q108.468 172.405 108.354 172.439Q108.24 172.474 108.122 172.497Q108.005 172.521 107.886 172.532Q107.767 172.544 107.648 172.544L57.472 172.544Q57.3525 172.544 57.2336 172.532Q57.1147 172.521 56.9975 172.497Q56.8804 172.474 56.766 172.439Q56.6517 172.405 56.5413 172.359Q56.4309 172.313 56.3256 172.257Q56.2202 172.201 56.1208 172.134Q56.0215 172.068 55.9292 171.992Q55.8368 171.916 55.7523 171.832Q55.6678 171.747 55.592 171.655Q55.5162 171.562 55.4499 171.463Q55.3835 171.364 55.3272 171.258Q55.2708 171.153 55.2251 171.043Q55.1794 170.932 55.1447 170.818Q55.11 170.704 55.0867 170.586Q55.0634 170.469 55.0517 170.35Q55.04 170.231 55.04 170.112Z"/>
	<path fill="#869BC2" fill-opacity="0.92156863" d="M55.04 182.912L55.04 182.912Q55.04 182.793 55.0517 182.674Q55.0634 182.555 55.0867 182.438Q55.11 182.32 55.1447 182.206Q55.1794 182.092 55.2251 181.981Q55.2708 181.871 55.3272 181.766Q55.3835 181.66 55.4499 181.561Q55.5162 181.462 55.592 181.369Q55.6678 181.277 55.7523 181.192Q55.8368 181.108 55.9292 181.032Q56.0215 180.956 56.1208 180.89Q56.2202 180.823 56.3256 180.767Q56.4309 180.711 56.5413 180.665Q56.6517 180.619 56.766 180.585Q56.8804 180.55 56.9975 180.527Q57.1147 180.503 57.2336 180.492Q57.3525 180.48 57.472 180.48L107.648 180.48Q107.767 180.48 107.886 180.492Q108.005 180.503 108.122 180.527Q108.24 180.55 108.354 180.585Q108.468 180.619 108.579 180.665Q108.689 180.711 108.794 180.767Q108.9 180.823 108.999 180.89Q109.098 180.956 109.191 181.032Q109.283 181.108 109.368 181.192Q109.452 181.277 109.528 181.369Q109.604 181.462 109.67 181.561Q109.737 181.66 109.793 181.766Q109.849 181.871 109.895 181.981Q109.941 182.092 109.975 182.206Q110.01 182.32 110.033 182.438Q110.057 182.555 110.068 182.674Q110.08 182.793 110.08 182.912L110.08 182.912Q110.08 183.032 110.068 183.15Q110.057 183.269 110.033 183.386Q110.01 183.504 109.975 183.618Q109.941 183.732 109.895 183.843Q109.849 183.953 109.793 184.058Q109.737 184.164 109.67 184.263Q109.604 184.362 109.528 184.455Q109.452 184.547 109.368 184.632Q109.283 184.716 109.191 184.792Q109.098 184.868 108.999 184.934Q108.9 185.001 108.794 185.057Q108.689 185.113 108.579 185.159Q108.468 185.205 108.354 185.239Q108.24 185.274 108.122 185.297Q108.005 185.321 107.886 185.332Q107.767 185.344 107.648 185.344L57.472 185.344Q57.3525 185.344 57.2336 185.332Q57.1147 185.321 56.9975 185.297Q56.8804 185.274 56.766 185.239Q56.6517 185.205 56.5413 185.159Q56.4309 185.113 56.3256 185.057Q56.2202 185.001 56.1208 184.934Q56.0215 184.868 55.9292 184.792Q55.8368 184.716 55.7523 184.632Q55.6678 184.547 55.592 184.455Q55.5162 184.363 55.4499 184.263Q55.3835 184.164 55.3272 184.058Q55.2708 183.953 55.2251 183.843Q55.1794 183.732 55.1447 183.618Q55.11 183.504 55.0867 183.386Q55.0634 183.269 55.0517 183.15Q55.04 183.032 55.04 182.912Z"/>
	<defs>
		<linearGradient id="gradient_4" gradientUnits="userSpaceOnUse" x1="0" y1="128" x2="0" y2="199.67999">
			<stop offset="0" stop-color="#F4F6FB"/>
			<stop offset="1" stop-color="#D5DCEA"/>
		</linearGradient>
	</defs>
	<path fill="url(#gradient_4)" d="M128 143.36C165.12 128.768 197.12 128.768 222.72 143.36L217.088 197.632C188.928 185.344 158.72 185.344 128 196.096L128 143.36Z"/>
	<path fill="#869BC2" fill-opacity="0.92156863" d="M145.92 157.312L145.92 157.312Q145.92 157.193 145.932 157.074Q145.943 156.955 145.967 156.838Q145.99 156.72 146.025 156.606Q146.059 156.492 146.105 156.381Q146.151 156.271 146.207 156.166Q146.263 156.06 146.33 155.961Q146.396 155.862 146.472 155.769Q146.548 155.677 146.632 155.592Q146.717 155.508 146.809 155.432Q146.902 155.356 147.001 155.29Q147.1 155.223 147.206 155.167Q147.311 155.111 147.421 155.065Q147.532 155.019 147.646 154.985Q147.76 154.95 147.878 154.927Q147.995 154.903 148.114 154.892Q148.233 154.88 148.352 154.88L198.528 154.88Q198.647 154.88 198.766 154.892Q198.885 154.903 199.002 154.927Q199.12 154.95 199.234 154.985Q199.348 155.019 199.459 155.065Q199.569 155.111 199.674 155.167Q199.78 155.223 199.879 155.29Q199.978 155.356 200.071 155.432Q200.163 155.508 200.248 155.592Q200.332 155.677 200.408 155.769Q200.484 155.862 200.55 155.961Q200.617 156.06 200.673 156.166Q200.729 156.271 200.775 156.381Q200.821 156.492 200.855 156.606Q200.89 156.72 200.913 156.838Q200.937 156.955 200.948 157.074Q200.96 157.193 200.96 157.312L200.96 157.312Q200.96 157.431 200.948 157.55Q200.937 157.669 200.913 157.786Q200.89 157.904 200.855 158.018Q200.821 158.132 200.775 158.243Q200.729 158.353 200.673 158.458Q200.617 158.564 200.55 158.663Q200.484 158.762 200.408 158.855Q200.332 158.947 200.248 159.032Q200.163 159.116 200.071 159.192Q199.978 159.268 199.879 159.334Q199.78 159.401 199.674 159.457Q199.569 159.513 199.459 159.559Q199.348 159.605 199.234 159.639Q199.12 159.674 199.002 159.697Q198.885 159.721 198.766 159.732Q198.647 159.744 198.528 159.744L148.352 159.744Q148.233 159.744 148.114 159.732Q147.995 159.721 147.878 159.697Q147.76 159.674 147.646 159.639Q147.532 159.605 147.421 159.559Q147.311 159.513 147.206 159.457Q147.1 159.401 147.001 159.334Q146.902 159.268 146.809 159.192Q146.717 159.116 146.632 159.032Q146.548 158.947 146.472 158.855Q146.396 158.762 146.33 158.663Q146.263 158.564 146.207 158.458Q146.151 158.353 146.105 158.243Q146.059 158.132 146.025 158.018Q145.99 157.904 145.967 157.786Q145.943 157.669 145.932 157.55Q145.92 157.431 145.92 157.312Z"/>
	<path fill="#869BC2" fill-opacity="0.92156863" d="M161.28 170.112L161.28 170.112Q161.28 169.993 161.292 169.874Q161.303 169.755 161.327 169.638Q161.35 169.52 161.385 169.406Q161.419 169.292 161.465 169.181Q161.511 169.071 161.567 168.966Q161.623 168.86 161.69 168.761Q161.756 168.661 161.832 168.569Q161.908 168.477 161.992 168.392Q162.077 168.308 162.169 168.232Q162.261 168.156 162.361 168.09Q162.46 168.023 162.566 167.967Q162.671 167.911 162.781 167.865Q162.892 167.819 163.006 167.785Q163.12 167.75 163.238 167.727Q163.355 167.703 163.474 167.692Q163.593 167.68 163.712 167.68L198.528 167.68Q198.647 167.68 198.766 167.692Q198.885 167.703 199.002 167.727Q199.12 167.75 199.234 167.785Q199.348 167.819 199.459 167.865Q199.569 167.911 199.674 167.967Q199.78 168.024 199.879 168.09Q199.978 168.156 200.071 168.232Q200.163 168.308 200.248 168.392Q200.332 168.477 200.408 168.569Q200.484 168.662 200.55 168.761Q200.617 168.86 200.673 168.966Q200.729 169.071 200.775 169.181Q200.821 169.292 200.855 169.406Q200.89 169.52 200.913 169.638Q200.937 169.755 200.948 169.874Q200.96 169.993 200.96 170.112L200.96 170.112Q200.96 170.231 200.948 170.35Q200.937 170.469 200.913 170.586Q200.89 170.704 200.855 170.818Q200.821 170.932 200.775 171.043Q200.729 171.153 200.673 171.258Q200.617 171.364 200.55 171.463Q200.484 171.562 200.408 171.655Q200.332 171.747 200.248 171.832Q200.163 171.916 200.071 171.992Q199.978 172.068 199.879 172.134Q199.78 172.201 199.674 172.257Q199.569 172.313 199.459 172.359Q199.348 172.405 199.234 172.439Q199.12 172.474 199.002 172.497Q198.885 172.521 198.766 172.532Q198.647 172.544 198.528 172.544L163.712 172.544Q163.593 172.544 163.474 172.532Q163.355 172.521 163.238 172.497Q163.12 172.474 163.006 172.439Q162.892 172.405 162.781 172.359Q162.671 172.313 162.566 172.257Q162.46 172.201 162.361 172.134Q162.261 172.068 162.169 171.992Q162.077 171.916 161.992 171.832Q161.908 171.747 161.832 171.655Q161.756 171.562 161.69 171.463Q161.623 171.364 161.567 171.258Q161.511 171.153 161.465 171.043Q161.419 170.932 161.385 170.818Q161.35 170.704 161.327 170.586Q161.303 170.469 161.292 170.35Q161.28 170.231 161.28 170.112Z"/>
	<path fill="#869BC2" fill-opacity="0.92156863" d="M145.92 182.912L145.92 182.912Q145.92 182.793 145.932 182.674Q145.943 182.555 145.967 182.438Q145.99 182.32 146.025 182.206Q146.059 182.092 146.105 181.981Q146.151 181.871 146.207 181.766Q146.263 181.66 146.33 181.561Q146.396 181.462 146.472 181.369Q146.548 181.277 146.632 181.192Q146.717 181.108 146.809 181.032Q146.902 180.956 147.001 180.89Q147.1 180.823 147.206 180.767Q147.311 180.711 147.421 180.665Q147.532 180.619 147.646 180.585Q147.76 180.55 147.878 180.527Q147.995 180.503 148.114 180.492Q148.233 180.48 148.352 180.48L198.528 180.48Q198.647 180.48 198.766 180.492Q198.885 180.503 199.002 180.527Q199.12 180.55 199.234 180.585Q199.348 180.619 199.459 180.665Q199.569 180.711 199.674 180.767Q199.78 180.823 199.879 180.89Q199.978 180.956 200.071 181.032Q200.163 181.108 200.248 181.192Q200.332 181.277 200.408 181.369Q200.484 181.462 200.55 181.561Q200.617 181.66 200.673 181.766Q200.729 181.871 200.775 181.981Q200.821 182.092 200.855 182.206Q200.89 182.32 200.913 182.438Q200.937 182.555 200.948 182.674Q200.96 182.793 200.96 182.912L200.96 182.912Q200.96 183.032 200.948 183.15Q200.937 183.269 200.913 183.386Q200.89 183.504 200.855 183.618Q200.821 183.732 200.775 183.843Q200.729 183.953 200.673 184.058Q200.617 184.164 200.55 184.263Q200.484 184.362 200.408 184.455Q200.332 184.547 200.248 184.632Q200.163 184.716 200.071 184.792Q199.978 184.868 199.879 184.934Q199.78 185.001 199.674 185.057Q199.569 185.113 199.459 185.159Q199.348 185.205 199.234 185.239Q199.12 185.274 199.002 185.297Q198.885 185.321 198.766 185.332Q198.647 185.344 198.528 185.344L148.352 185.344Q148.233 185.344 148.114 185.332Q147.995 185.321 147.878 185.297Q147.76 185.274 147.646 185.239Q147.532 185.205 147.421 185.159Q147.311 185.113 147.206 185.057Q147.1 185.001 147.001 184.934Q146.902 184.868 146.809 184.792Q146.717 184.716 146.632 184.632Q146.548 184.547 146.472 184.455Q146.396 184.363 146.33 184.263Q146.263 184.164 146.207 184.058Q146.151 183.953 146.105 183.843Q146.059 183.732 146.025 183.618Q145.99 183.504 145.967 183.386Q145.943 183.269 145.932 183.15Q145.92 183.032 145.92 182.912Z"/>
	<path fill="none" stroke="#1F283C" stroke-width="3.3280001" stroke-miterlimit="4" stroke-opacity="0.50980395" d="M128 142.848L128 199.168"/>
	<defs>
		<linearGradient id="gradient_5" gradientUnits="userSpaceOnUse" x1="0" y1="0.2" x2="0" y2="0.63999999">
			<stop offset="0" stop-color="#3C6FF5"/>
			<stop offset="1" stop-color="#2B52C8"/>
		</linearGradient>
	</defs>
	<path fill="url(#gradient_5)" transform="matrix(121.611 54.1448 -54.1448 121.611 154.88 90.88)" d="M-0.028 0.22L0.03 0.22L-0.055 0.66L-0.028 0.22Z"/>
	<defs>
		<linearGradient id="gradient_6" gradientUnits="userSpaceOnUse" x1="0.14" y1="-0.51999998" x2="-0.079999998" y2="0.34">
			<stop offset="0" stop-color="#3ADACF"/>
			<stop offset="1" stop-color="#3C6FF5"/>
		</linearGradient>
	</defs>
	<path fill="url(#gradient_6)" transform="matrix(121.611 54.1448 -54.1448 121.611 154.88 90.88)" d="M0 0.3C0.3 0.06 0.3 -0.28 0.05 -0.55C-0.1 -0.3 -0.27 0.04 0 0.3Z"/>
	<path fill="#1B1B22" transform="matrix(121.611 54.1448 -54.1448 121.611 154.88 90.88)" d="M-0.225 0.14L-0.05 0.02L-0.1 0.2L-0.225 0.14Z"/>
	<path fill="none" stroke="white" stroke-width="0.028000001" stroke-linecap="round" stroke-miterlimit="4" stroke-opacity="0.30588236" transform="matrix(121.611 54.1448 -54.1448 121.611 154.88 90.88)" d="M0 0.26C0.06 0 0.06 -0.26 0.04 -0.48"/>
	<ellipse fill="#2B52C8" cx="144.896" cy="153.60001" rx="3.0720062" ry="3.0720062"/>
</svg>
